# xmcd
#
# Track frame offsets:
#	150
#	16492
#	29584
#	49893
#	66374
#	79687
#	100906
#	118798
#	135691
#	152650
#	171690
#	193365
#	206516
#	221257
#	239790
#	255378
#	271420
#	288963
#	305930
#	321633
#	337836
#
# Disc length: 4725
#
# Revision: 3
# Processed by: cddbd v1.5.1PL0 Copyright (c) Steve Scherf et al.
# Submitted via: CDex 1.40Beta1
# Normalized: r1:TRMNUM;r2:TDELIM( - )
#
DISCID=4e127315
DTITLE=Various Country Artists - Best of Country - CD1
DYEAR=2001
DGENRE=Country
TTITLE0=Rascal Flatts - Prayin' For Daylight
TTITLE1=Sammy Kershaw - She Don't Know She's Beautiful
TTITLE2=Reba McEntire - I'll Be
TTITLE3=Darryl Worley - When You Need My Love
TTITLE4=Aaron Tippin - Kiss This
TTITLE5=Alabama - Pass It On Down
TTITLE6=Michelle Wright - Take It Like A Man
TTITLE7=Trisha Yearwood - There Goes My Baby
TTITLE8=LeAnn Rimes - I Need You
TTITLE9=Faith Hill and Tim McGraw - Let's Make Love
TTITLE10=Sara Evans - I Could Not Ask For More
TTITLE11=Tracy Byrd - Lifestyles Of The Not So Rich And Famous
TTITLE12=Garth Brooks - Somewhere Other Than The Night
TTITLE13=Travis Tritt - Best of Intentions
TTITLE14=Jo Dee Messina - That's The Way
TTITLE15=Lonestar - What About Now
TTITLE16=Phil Vassar - Just Another Day In Paradise
TTITLE17=SheDaisy - I Will, But...
TTITLE18=The Judds - Why Not Me
TTITLE19=Lila McCann - With You
TTITLE20=Faith Hill - Take Another Piece of My Heart
EXTD=YEAR: 2001 ID3G:   2
EXTT0=
EXTT1=
EXTT2=
EXTT3=
EXTT4=
EXTT5=
EXTT6=
EXTT7=
EXTT8=
EXTT9=
EXTT10=
EXTT11=
EXTT12=
EXTT13=
EXTT14=
EXTT15=
EXTT16=
EXTT17=
EXTT18=
EXTT19=
EXTT20=
PLAYORDER=
